<svg id="Layer_1" data-name="Layer 1" xmlns="http://www.w3.org/2000/svg" viewBox="0 0 135.97 30.46"><defs><style>.cls-1{fill:none}.cls-2{clip-path:url(#clip-path)}.cls-3{fill:#fff}</style><clipPath id="clip-path" transform="translate(508 235.46)"><path class="cls-1" d="M-508-235.46h135.97V-205H-508z"/></clipPath></defs><title>logo</title><g class="cls-2"><path class="cls-3" d="M-506.19-213l5.09-2.94 5.69 3.28v5.88zm12 .35l5.69-3.28 5.09 2.94-10.78 6.22zm-5.69-4l4.49-2.59v5.24zm5.69-2.59l4.49 2.59-4.49 2.59zm-3.53-2l1.72 1-3.44 2zm4.13 1l1.72-1 1.72 3zm-3.53-2l1.72-3v4zm2.93-3l1.72 3-1.72 1zm-12.58-1.2l8 4.63-2.76 4.79-5.25 3zm18.72 9.41l-2.76-4.79 8-4.63V-214zm-18.11-10.46l10.78-6.22v6.06l-2.77 4.79zm12-.16v-6.06l10.78 6.22-8 4.63zm-.6-7.8l-13.24 7.61v15.23l13.19 7.61 13.19-7.61v-15.23zm35.08 20.31h-9.07l-1.37 3.8h-2.15l6.54-18h2.88l6.7 18h-2.13zm-.59-1.64l-4-11-4 11z" transform="translate(508 235.46)"/><g class="cls-2"><path class="cls-3" d="M-454-223.92h1.83l-.08 1.45a3.23 3.23 0 0 1 1.47-1.33 4.83 4.83 0 0 1 2-.4 3.74 3.74 0 0 1 2.79.9 3.88 3.88 0 0 1 .88 2.79v.36a3.15 3.15 0 0 1 0 .39H-447a3.68 3.68 0 0 0 0-.46v-.48a1.83 1.83 0 0 0-.55-1.56 2.8 2.8 0 0 0-1.66-.4 3 3 0 0 0-2.19.73 3 3 0 0 0-.74 2.21v8.37H-454zm19.51 8h1.86q0 2.91-1.21 3.8a7.06 7.06 0 0 1-4.07.89q-4 0-4.78-1.63a12.43 12.43 0 0 1-.79-5.15 7.57 7.57 0 0 1 1.1-4.62q1.1-1.41 4.44-1.41a8.77 8.77 0 0 1 3.58.67q1.51.67 1.51 3.18v.19a.24.24 0 0 0 0 .11v.11h-1.83a2.68 2.68 0 0 0-.69-2.21 4 4 0 0 0-2.33-.51q-2.5 0-3.15.79t-.65 3.47v1.24a8 8 0 0 0 .49 3.17q.48 1.06 2.93 1.06a5.64 5.64 0 0 0 2.85-.5q.75-.5.75-2.65m4.35 4.58v-18h8.64a5.4 5.4 0 0 1 3.51.94q1.12.94 1.12 3.5a7.18 7.18 0 0 1-.39 2.54 2.89 2.89 0 0 1-1.91 1.55 3.5 3.5 0 0 1 2.32 1.49 5.9 5.9 0 0 1 .54 2.76 6.47 6.47 0 0 1-1 3.8q-1 1.37-3.69 1.37zm2-10.12h5.68a4.32 4.32 0 0 0 2.75-.65 3.39 3.39 0 0 0 .75-2.6 3.25 3.25 0 0 0-.58-2.24 3.06 3.06 0 0 0-2.19-.6h-6.41zm0 8.37h5.55a7.4 7.4 0 0 0 3.23-.49q.92-.5.92-2.83a5.35 5.35 0 0 0-.44-2.32q-.44-.93-2.14-.92h-7.11z" transform="translate(508 235.46)"/><path class="cls-3" d="M94.3 6.16h1.91v17.96H94.3z"/><path class="cls-3" d="M-409.45-218a8.86 8.86 0 0 1 1-4.68q1-1.48 4.4-1.48 3.61 0 4.68 1.25t1.08 4.81a15.71 15.71 0 0 1-.66 5q-.66 1.91-4.54 1.91-3.37 0-4.64-1.05t-1.28-4.58zm2 0v2.24a9.62 9.62 0 0 0 .21 1.49 2.33 2.33 0 0 0 .51 1.08 1.62 1.62 0 0 0 .72.38 4.79 4.79 0 0 0 .91.14h1.26a5.43 5.43 0 0 0 2.5-.46q.87-.46 1-2.24v-2.9a9.17 9.17 0 0 0-.43-3.32q-.43-1-2.72-1h-.4q-2.43 0-3 .75t-.6 3.43zm20.59 2.08h1.86q0 2.91-1.21 3.8a7.05 7.05 0 0 1-4.07.89q-4 0-4.78-1.63a12.43 12.43 0 0 1-.79-5.15 7.57 7.57 0 0 1 1.1-4.62q1.1-1.41 4.44-1.41a8.77 8.77 0 0 1 3.58.67q1.51.67 1.51 3.18v.19a.24.24 0 0 0 0 .11v.11h-1.83a2.68 2.68 0 0 0-.69-2.21 4 4 0 0 0-2.33-.51q-2.5 0-3.15.79t-.65 3.47v1.24a8 8 0 0 0 .49 3.17q.48 1.06 2.93 1.06a5.64 5.64 0 0 0 2.85-.5q.75-.5.75-2.65" transform="translate(508 235.46)"/><path class="cls-3" d="M127.41 6.16V16.6h.75l4.53-5.06H135l-5.36 5.79 6.33 6.78h-2.48l-5.33-6.06h-.75v6.06h-1.91V6.16h1.91z"/></g></g></svg>